<?xml version="1.0" standalone="no"?>
<!DOCTYPE svg PUBLIC "-//W3C//DTD SVG 20010904//EN"
 "http://www.w3.org/TR/2001/REC-SVG-20010904/DTD/svg10.dtd">
<svg version="1.0" xmlns="http://www.w3.org/2000/svg"
 width="2023.000000pt" height="192.500000pt" viewBox="0 0 2023.000000 192.500000"
 preserveAspectRatio="xMidYMid meet">
<metadata>
Created by potrace 1.16, written by Peter Selinger 2001-2019
</metadata>
<g transform="translate(0.000000,195.000000) scale(0.100000,-0.100000)"
fill="#000000" stroke="none">
<path d="M1385 1864 c-41 -47 -90 -116 -107 -152 -29 -59 -33 -76 -33 -149 0
-79 2 -85 54 -188 l55 -106 -21 -20 -20 -20 -82 55 c-137 92 -261 136 -442
157 -118 13 -220 7 -334 -22 -136 -35 -234 -88 -393 -213 l-62 -49 0 -113 0
-112 75 -73 c151 -146 276 -220 450 -266 86 -22 122 -26 255 -27 103 -1 173 4
210 13 80 20 207 78 273 124 57 40 58 40 77 21 19 -19 18 -21 -37 -129 -106
-209 -89 -283 123 -518 l47 -52 69 75 c148 161 192 265 157 371 -7 19 -42 81
-80 138 -68 103 -71 116 -44 149 2 2 32 -18 68 -43 83 -58 171 -99 272 -127
106 -29 314 -32 423 -5 198 48 326 116 471 253 l91 86 83 -79 c143 -137 257
-203 433 -250 85 -22 121 -26 254 -27 103 -1 173 4 210 13 80 20 207 78 273
124 57 40 58 40 77 21 19 -19 18 -21 -37 -129 -106 -209 -89 -283 123 -518
l47 -52 69 75 c148 161 192 265 157 371 -7 19 -42 81 -80 138 -68 103 -71 116
-44 149 2 2 32 -18 68 -43 83 -58 171 -99 272 -127 106 -29 314 -32 423 -5
198 48 326 116 471 253 l91 86 83 -79 c143 -137 257 -203 433 -250 85 -22 121
-26 254 -27 103 -1 173 4 210 13 80 20 207 78 273 124 57 40 58 40 77 21 19
-19 18 -21 -37 -129 -106 -209 -89 -283 123 -518 l47 -52 69 75 c148 161 192
265 157 371 -7 19 -42 81 -80 138 -68 103 -71 116 -44 149 2 2 32 -18 68 -43
83 -58 171 -99 272 -127 106 -29 314 -32 423 -5 198 48 326 116 471 253 l91
86 83 -79 c143 -137 257 -203 433 -250 85 -22 121 -26 254 -27 103 -1 173 4
210 13 80 20 207 78 273 124 57 40 58 40 77 21 19 -19 18 -21 -37 -129 -106
-209 -89 -283 123 -518 l47 -52 69 75 c148 161 192 265 157 371 -7 19 -42 81
-80 138 -68 103 -71 116 -44 149 2 2 32 -18 68 -43 83 -58 171 -99 272 -127
106 -29 314 -32 423 -5 198 48 326 116 471 253 l91 86 83 -79 c143 -137 257
-203 433 -250 85 -22 121 -26 254 -27 103 -1 173 4 210 13 80 20 207 78 273
124 57 40 58 40 77 21 19 -19 18 -21 -37 -129 -106 -209 -89 -283 123 -518
l47 -52 69 75 c148 161 192 265 157 371 -7 19 -42 81 -80 138 -68 103 -71 116
-44 149 2 2 32 -18 68 -43 83 -58 171 -99 272 -127 106 -29 314 -32 423 -5
198 48 326 116 471 253 l91 86 83 -79 c143 -137 257 -203 433 -250 85 -22 121
-26 254 -27 103 -1 173 4 210 13 80 20 207 78 273 124 57 40 58 40 77 21 19
-19 18 -21 -37 -129 -106 -209 -89 -283 123 -518 l47 -52 69 75 c148 161 192
265 157 371 -7 19 -42 81 -80 138 -68 103 -71 116 -44 149 2 2 32 -18 68 -43
83 -58 171 -99 272 -127 106 -29 314 -32 423 -5 198 48 326 116 471 253 l91
86 83 -79 c143 -137 257 -203 433 -250 85 -22 121 -26 254 -27 103 -1 173 4
210 13 80 20 207 78 273 124 57 40 58 40 77 21 19 -19 18 -21 -37 -129 -106
-209 -89 -283 123 -518 l47 -52 69 75 c148 161 192 265 157 371 -7 19 -42 81
-80 138 -68 103 -71 116 -44 149 2 2 32 -18 68 -43 83 -58 171 -99 272 -127
106 -29 314 -32 423 -5 195 47 324 116 465 247 l87 82 0 121 0 122 -54 47
c-133 117 -255 183 -404 220 -121 30 -331 30 -447 -1 -103 -28 -208 -78 -306
-146 -76 -53 -78 -54 -92 -34 -13 18 -10 27 29 97 51 89 82 167 90 226 8 56
-27 155 -81 231 -44 62 -137 155 -154 155 -21 0 -162 -174 -193 -238 -29 -59
-33 -76 -33 -149 0 -79 2 -85 54 -188 l55 -106 -21 -20 -20 -20 -82 55 c-137
92 -261 136 -442 157 -174 20 -343 -8 -494 -81 -77 -37 -113 -61 -239 -159
l-57 -44 -37 32 c-151 129 -271 196 -417 233 -124 30 -333 30 -450 -1 -103
-28 -208 -78 -306 -146 -76 -53 -78 -54 -92 -34 -13 18 -10 27 29 97 51 89 82
167 90 226 8 56 -27 155 -81 231 -44 62 -137 155 -154 155 -21 0 -162 -174
-193 -238 -29 -59 -33 -76 -33 -149 0 -79 2 -85 54 -188 l55 -106 -21 -20 -20
-20 -82 55 c-137 92 -261 136 -442 157 -174 20 -343 -8 -494 -81 -77 -37 -113
-61 -239 -159 l-57 -44 -37 32 c-151 129 -271 196 -417 233 -124 30 -333 30
-450 -1 -103 -28 -208 -78 -306 -146 -76 -53 -78 -54 -92 -34 -13 18 -10 27
29 97 51 89 82 167 90 226 8 56 -27 155 -81 231 -44 62 -137 155 -154 155 -21
0 -162 -174 -193 -238 -29 -59 -33 -76 -33 -149 0 -79 2 -85 54 -188 l55 -106
-21 -20 -20 -20 -82 55 c-137 92 -261 136 -442 157 -174 20 -343 -8 -494 -81
-77 -37 -113 -61 -239 -159 l-57 -44 -37 32 c-151 129 -271 196 -417 233 -124
30 -333 30 -450 -1 -103 -28 -208 -78 -306 -146 -76 -53 -78 -54 -92 -34 -13
18 -10 27 29 97 51 89 82 167 90 226 8 56 -27 155 -81 231 -44 62 -137 155
-154 155 -21 0 -162 -174 -193 -238 -29 -59 -33 -76 -33 -149 0 -79 2 -85 54
-188 l55 -106 -21 -20 -20 -20 -82 55 c-137 92 -261 136 -442 157 -174 20
-343 -8 -494 -81 -77 -37 -113 -61 -239 -159 l-57 -44 -37 32 c-151 129 -271
196 -417 233 -124 30 -333 30 -450 -1 -103 -28 -208 -78 -306 -146 -76 -53
-78 -54 -92 -34 -13 18 -10 27 29 97 51 89 82 167 90 226 8 56 -27 155 -81
231 -44 62 -137 155 -154 155 -21 0 -162 -174 -193 -238 -29 -59 -33 -76 -33
-149 0 -79 2 -85 54 -188 l55 -106 -21 -20 -20 -20 -82 55 c-137 92 -261 136
-442 157 -174 20 -343 -8 -494 -81 -77 -37 -113 -61 -239 -159 l-57 -44 -37
32 c-151 129 -271 196 -417 233 -124 30 -333 30 -450 -1 -103 -28 -208 -78
-306 -146 -76 -53 -78 -54 -92 -34 -13 18 -10 27 29 97 51 89 82 167 90 226 8
56 -27 155 -81 231 -44 62 -137 155 -154 155 -21 0 -162 -174 -193 -238 -29
-59 -33 -76 -33 -149 0 -79 2 -85 54 -188 l55 -106 -21 -20 -20 -20 -82 55
c-137 92 -261 136 -442 157 -174 20 -343 -8 -494 -81 -77 -37 -113 -61 -239
-159 l-57 -44 -37 32 c-151 129 -271 196 -417 233 -124 30 -333 30 -450 -1
-103 -28 -208 -78 -306 -146 -76 -53 -78 -54 -92 -34 -13 18 -10 27 29 97 51
89 82 167 90 226 8 56 -27 155 -81 231 -44 62 -137 155 -154 155 -6 0 -44 -39
-86 -86z m136 -293 c6 -18 9 -53 5 -77 -7 -54 -43 -127 -59 -122 -7 2 -22 25
-35 50 -37 74 -29 164 21 227 9 11 16 8 34 -15 13 -16 28 -44 34 -63z m2890 0
c6 -18 9 -53 5 -77 -7 -54 -43 -127 -59 -122 -7 2 -22 25 -35 50 -37 74 -29
164 21 227 9 11 16 8 34 -15 13 -16 28 -44 34 -63z m2890 0 c6 -18 9 -53 5
-77 -7 -54 -43 -127 -59 -122 -7 2 -22 25 -35 50 -37 74 -29 164 21 227 9 11
16 8 34 -15 13 -16 28 -44 34 -63z m2890 0 c6 -18 9 -53 5 -77 -7 -54 -43
-127 -59 -122 -7 2 -22 25 -35 50 -37 74 -29 164 21 227 9 11 16 8 34 -15 13
-16 28 -44 34 -63z m2890 0 c6 -18 9 -53 5 -77 -7 -54 -43 -127 -59 -122 -7 2
-22 25 -35 50 -37 74 -29 164 21 227 9 11 16 8 34 -15 13 -16 28 -44 34 -63z
m2890 0 c6 -18 9 -53 5 -77 -7 -54 -43 -127 -59 -122 -7 2 -22 25 -35 50 -37
74 -29 164 21 227 9 11 16 8 34 -15 13 -16 28 -44 34 -63z m2890 0 c6 -18 9
-53 5 -77 -7 -54 -43 -127 -59 -122 -7 2 -22 25 -35 50 -37 74 -29 164 21 227
9 11 16 8 34 -15 13 -16 28 -44 34 -63z m-18066 -304 c135 -53 181 -69 280
-97 141 -41 171 -56 154 -76 -7 -9 -26 -22 -42 -30 -38 -20 -67 -10 -175 62
-124 84 -222 124 -302 123 l-65 0 50 -23 c28 -13 66 -37 85 -54 32 -28 34 -31
15 -38 -138 -49 -301 -145 -279 -163 75 -62 146 -97 228 -112 36 -7 66 -15 66
-19 0 -4 -9 -15 -20 -25 -30 -28 -24 -35 28 -35 70 0 125 20 238 84 54 31 106
56 116 56 9 0 30 -11 45 -25 27 -24 28 -25 8 -38 -45 -28 -114 -49 -253 -78
-235 -48 -276 -53 -368 -39 -105 15 -118 24 -63 41 24 8 45 21 47 29 2 13 -12
14 -87 12 -116 -4 -141 7 -254 119 l-87 87 70 56 c38 31 70 61 70 66 0 5 -7
13 -16 18 -14 8 -7 16 42 47 98 64 149 76 299 71 86 -2 144 -8 170 -19z m1676
3 c64 -19 179 -84 179 -100 0 -5 -10 -12 -22 -16 -20 -6 -19 -9 24 -49 25 -23
56 -50 69 -59 l24 -17 -75 -71 c-89 -84 -147 -114 -255 -128 -143 -20 -150
-25 -71 -50 49 -16 35 -25 -62 -41 -87 -14 -219 0 -320 35 -37 13 -98 31 -137
40 -74 18 -155 52 -155 66 0 4 18 20 39 35 l40 27 105 -66 c128 -80 137 -84
219 -88 76 -3 89 4 53 27 -41 27 -32 42 37 63 71 21 190 87 225 125 l24 25
-44 26 c-43 27 -141 59 -210 71 -21 3 -38 10 -38 14 0 9 78 76 114 99 18 11
11 12 -49 8 -88 -6 -136 -24 -250 -97 -50 -31 -113 -65 -141 -75 -51 -17 -51
-17 -82 5 -18 12 -32 26 -32 31 0 11 118 70 140 70 21 0 236 55 275 71 112 44
270 52 376 19z m1214 -3 c135 -53 181 -69 280 -97 141 -41 171 -56 154 -76 -7
-9 -26 -22 -42 -30 -38 -20 -67 -10 -175 62 -124 84 -222 124 -302 123 l-65 0
50 -23 c28 -13 66 -37 85 -54 32 -28 34 -31 15 -38 -138 -49 -301 -145 -279
-163 75 -62 146 -97 228 -112 36 -7 66 -15 66 -19 0 -4 -9 -15 -20 -25 -30
-28 -24 -35 28 -35 70 0 125 20 238 84 54 31 106 56 116 56 9 0 30 -11 45 -25
27 -24 28 -25 8 -38 -45 -28 -114 -49 -253 -78 -235 -48 -276 -53 -368 -39
-105 15 -118 24 -63 41 24 8 45 21 47 29 2 13 -12 14 -87 12 -116 -4 -141 7
-254 119 l-87 87 70 56 c38 31 70 61 70 66 0 5 -7 13 -16 18 -14 8 -7 16 42
47 98 64 149 76 299 71 86 -2 144 -8 170 -19z m1676 3 c64 -19 179 -84 179
-100 0 -5 -10 -12 -22 -16 -20 -6 -19 -9 24 -49 25 -23 56 -50 69 -59 l24 -17
-75 -71 c-89 -84 -147 -114 -255 -128 -143 -20 -150 -25 -71 -50 49 -16 35
-25 -62 -41 -87 -14 -219 0 -320 35 -37 13 -98 31 -137 40 -74 18 -155 52
-155 66 0 4 18 20 39 35 l40 27 105 -66 c128 -80 137 -84 219 -88 76 -3 89 4
53 27 -41 27 -32 42 37 63 71 21 190 87 225 125 l24 25 -44 26 c-43 27 -141
59 -210 71 -21 3 -38 10 -38 14 0 9 78 76 114 99 18 11 11 12 -49 8 -88 -6
-136 -24 -250 -97 -50 -31 -113 -65 -141 -75 -51 -17 -51 -17 -82 5 -18 12
-32 26 -32 31 0 11 118 70 140 70 21 0 236 55 275 71 112 44 270 52 376 19z
m1214 -3 c135 -53 181 -69 280 -97 141 -41 171 -56 154 -76 -7 -9 -26 -22 -42
-30 -38 -20 -67 -10 -175 62 -124 84 -222 124 -302 123 l-65 0 50 -23 c28 -13
66 -37 85 -54 32 -28 34 -31 15 -38 -138 -49 -301 -145 -279 -163 75 -62 146
-97 228 -112 36 -7 66 -15 66 -19 0 -4 -9 -15 -20 -25 -30 -28 -24 -35 28 -35
70 0 125 20 238 84 54 31 106 56 116 56 9 0 30 -11 45 -25 27 -24 28 -25 8
-38 -45 -28 -114 -49 -253 -78 -235 -48 -276 -53 -368 -39 -105 15 -118 24
-63 41 24 8 45 21 47 29 2 13 -12 14 -87 12 -116 -4 -141 7 -254 119 l-87 87
70 56 c38 31 70 61 70 66 0 5 -7 13 -16 18 -14 8 -7 16 42 47 98 64 149 76
299 71 86 -2 144 -8 170 -19z m1676 3 c64 -19 179 -84 179 -100 0 -5 -10 -12
-22 -16 -20 -6 -19 -9 24 -49 25 -23 56 -50 69 -59 l24 -17 -75 -71 c-89 -84
-147 -114 -255 -128 -143 -20 -150 -25 -71 -50 49 -16 35 -25 -62 -41 -87 -14
-219 0 -320 35 -37 13 -98 31 -137 40 -74 18 -155 52 -155 66 0 4 18 20 39 35
l40 27 105 -66 c128 -80 137 -84 219 -88 76 -3 89 4 53 27 -41 27 -32 42 37
63 71 21 190 87 225 125 l24 25 -44 26 c-43 27 -141 59 -210 71 -21 3 -38 10
-38 14 0 9 78 76 114 99 18 11 11 12 -49 8 -88 -6 -136 -24 -250 -97 -50 -31
-113 -65 -141 -75 -51 -17 -51 -17 -82 5 -18 12 -32 26 -32 31 0 11 118 70
140 70 21 0 236 55 275 71 112 44 270 52 376 19z m1214 -3 c135 -53 181 -69
280 -97 141 -41 171 -56 154 -76 -7 -9 -26 -22 -42 -30 -38 -20 -67 -10 -175
62 -124 84 -222 124 -302 123 l-65 0 50 -23 c28 -13 66 -37 85 -54 32 -28 34
-31 15 -38 -138 -49 -301 -145 -279 -163 75 -62 146 -97 228 -112 36 -7 66
-15 66 -19 0 -4 -9 -15 -20 -25 -30 -28 -24 -35 28 -35 70 0 125 20 238 84 54
31 106 56 116 56 9 0 30 -11 45 -25 27 -24 28 -25 8 -38 -45 -28 -114 -49
-253 -78 -235 -48 -276 -53 -368 -39 -105 15 -118 24 -63 41 24 8 45 21 47 29
2 13 -12 14 -87 12 -116 -4 -141 7 -254 119 l-87 87 70 56 c38 31 70 61 70 66
0 5 -7 13 -16 18 -14 8 -7 16 42 47 98 64 149 76 299 71 86 -2 144 -8 170 -19z
m1676 3 c64 -19 179 -84 179 -100 0 -5 -10 -12 -22 -16 -20 -6 -19 -9 24 -49
25 -23 56 -50 69 -59 l24 -17 -75 -71 c-89 -84 -147 -114 -255 -128 -143 -20
-150 -25 -71 -50 49 -16 35 -25 -62 -41 -87 -14 -219 0 -320 35 -37 13 -98 31
-137 40 -74 18 -155 52 -155 66 0 4 18 20 39 35 l40 27 105 -66 c128 -80 137
-84 219 -88 76 -3 89 4 53 27 -41 27 -32 42 37 63 71 21 190 87 225 125 l24
25 -44 26 c-43 27 -141 59 -210 71 -21 3 -38 10 -38 14 0 9 78 76 114 99 18
11 11 12 -49 8 -88 -6 -136 -24 -250 -97 -50 -31 -113 -65 -141 -75 -51 -17
-51 -17 -82 5 -18 12 -32 26 -32 31 0 11 118 70 140 70 21 0 236 55 275 71
112 44 270 52 376 19z m1214 -3 c135 -53 181 -69 280 -97 141 -41 171 -56 154
-76 -7 -9 -26 -22 -42 -30 -38 -20 -67 -10 -175 62 -124 84 -222 124 -302 123
l-65 0 50 -23 c28 -13 66 -37 85 -54 32 -28 34 -31 15 -38 -138 -49 -301 -145
-279 -163 75 -62 146 -97 228 -112 36 -7 66 -15 66 -19 0 -4 -9 -15 -20 -25
-30 -28 -24 -35 28 -35 70 0 125 20 238 84 54 31 106 56 116 56 9 0 30 -11 45
-25 27 -24 28 -25 8 -38 -45 -28 -114 -49 -253 -78 -235 -48 -276 -53 -368
-39 -105 15 -118 24 -63 41 24 8 45 21 47 29 2 13 -12 14 -87 12 -116 -4 -141
7 -254 119 l-87 87 70 56 c38 31 70 61 70 66 0 5 -7 13 -16 18 -14 8 -7 16 42
47 98 64 149 76 299 71 86 -2 144 -8 170 -19z m1676 3 c64 -19 179 -84 179
-100 0 -5 -10 -12 -22 -16 -20 -6 -19 -9 24 -49 25 -23 56 -50 69 -59 l24 -17
-75 -71 c-89 -84 -147 -114 -255 -128 -143 -20 -150 -25 -71 -50 49 -16 35
-25 -62 -41 -87 -14 -219 0 -320 35 -37 13 -98 31 -137 40 -74 18 -155 52
-155 66 0 4 18 20 39 35 l40 27 105 -66 c128 -80 137 -84 219 -88 76 -3 89 4
53 27 -41 27 -32 42 37 63 71 21 190 87 225 125 l24 25 -44 26 c-43 27 -141
59 -210 71 -21 3 -38 10 -38 14 0 9 78 76 114 99 18 11 11 12 -49 8 -88 -6
-136 -24 -250 -97 -50 -31 -113 -65 -141 -75 -51 -17 -51 -17 -82 5 -18 12
-32 26 -32 31 0 11 118 70 140 70 21 0 236 55 275 71 112 44 270 52 376 19z
m1214 -3 c135 -53 181 -69 280 -97 141 -41 171 -56 154 -76 -7 -9 -26 -22 -42
-30 -38 -20 -67 -10 -175 62 -124 84 -222 124 -302 123 l-65 0 50 -23 c28 -13
66 -37 85 -54 32 -28 34 -31 15 -38 -138 -49 -301 -145 -279 -163 75 -62 146
-97 228 -112 36 -7 66 -15 66 -19 0 -4 -9 -15 -20 -25 -30 -28 -24 -35 28 -35
70 0 125 20 238 84 54 31 106 56 116 56 9 0 30 -11 45 -25 27 -24 28 -25 8
-38 -45 -28 -114 -49 -253 -78 -235 -48 -276 -53 -368 -39 -105 15 -118 24
-63 41 24 8 45 21 47 29 2 13 -12 14 -87 12 -116 -4 -141 7 -254 119 l-87 87
70 56 c38 31 70 61 70 66 0 5 -7 13 -16 18 -14 8 -7 16 42 47 98 64 149 76
299 71 86 -2 144 -8 170 -19z m1676 3 c64 -19 179 -84 179 -100 0 -5 -10 -12
-22 -16 -20 -6 -19 -9 24 -49 25 -23 56 -50 69 -59 l24 -17 -75 -71 c-89 -84
-147 -114 -255 -128 -143 -20 -150 -25 -71 -50 49 -16 35 -25 -62 -41 -87 -14
-219 0 -320 35 -37 13 -98 31 -137 40 -74 18 -155 52 -155 66 0 4 18 20 39 35
l40 27 105 -66 c128 -80 137 -84 219 -88 76 -3 89 4 53 27 -41 27 -32 42 37
63 71 21 190 87 225 125 l24 25 -44 26 c-43 27 -141 59 -210 71 -21 3 -38 10
-38 14 0 9 78 76 114 99 18 11 11 12 -49 8 -88 -6 -136 -24 -250 -97 -50 -31
-113 -65 -141 -75 -51 -17 -51 -17 -82 5 -18 12 -32 26 -32 31 0 11 118 70
140 70 21 0 236 55 275 71 112 44 270 52 376 19z m1214 -3 c135 -53 181 -69
280 -97 141 -41 171 -56 154 -76 -7 -9 -26 -22 -42 -30 -38 -20 -67 -10 -175
62 -124 84 -222 124 -302 123 l-65 0 50 -23 c28 -13 66 -37 85 -54 32 -28 34
-31 15 -38 -138 -49 -301 -145 -279 -163 75 -62 146 -97 228 -112 36 -7 66
-15 66 -19 0 -4 -9 -15 -20 -25 -30 -28 -24 -35 28 -35 70 0 125 20 238 84 54
31 106 56 116 56 9 0 30 -11 45 -25 27 -24 28 -25 8 -38 -45 -28 -114 -49
-253 -78 -235 -48 -276 -53 -368 -39 -105 15 -118 24 -63 41 24 8 45 21 47 29
2 13 -12 14 -87 12 -116 -4 -141 7 -254 119 l-87 87 70 56 c38 31 70 61 70 66
0 5 -7 13 -16 18 -14 8 -7 16 42 47 98 64 149 76 299 71 86 -2 144 -8 170 -19z
m1676 3 c64 -19 179 -84 179 -100 0 -5 -10 -12 -22 -16 -20 -6 -19 -9 24 -49
25 -23 56 -50 69 -59 l24 -17 -75 -71 c-89 -84 -147 -114 -255 -128 -143 -20
-150 -25 -71 -50 49 -16 35 -25 -62 -41 -87 -14 -219 0 -320 35 -37 13 -98 31
-137 40 -74 18 -155 52 -155 66 0 4 18 20 39 35 l40 27 105 -66 c128 -80 137
-84 219 -88 76 -3 89 4 53 27 -41 27 -32 42 37 63 71 21 190 87 225 125 l24
25 -44 26 c-43 27 -141 59 -210 71 -21 3 -38 10 -38 14 0 9 78 76 114 99 18
11 11 12 -49 8 -88 -6 -136 -24 -250 -97 -50 -31 -113 -65 -141 -75 -51 -17
-51 -17 -82 5 -18 12 -32 26 -32 31 0 11 118 70 140 70 21 0 236 55 275 71
112 44 270 52 376 19z m-18264 -232 l41 -37 -58 -55 c-32 -31 -63 -56 -69 -56
-5 0 -30 18 -55 40 -26 21 -54 43 -63 49 -15 8 -13 13 17 37 19 16 51 43 70
61 39 35 29 39 117 -39z m2890 0 l41 -37 -58 -55 c-32 -31 -63 -56 -69 -56 -5
0 -30 18 -55 40 -26 21 -54 43 -63 49 -15 8 -13 13 17 37 19 16 51 43 70 61
39 35 29 39 117 -39z m2890 0 l41 -37 -58 -55 c-32 -31 -63 -56 -69 -56 -5 0
-30 18 -55 40 -26 21 -54 43 -63 49 -15 8 -13 13 17 37 19 16 51 43 70 61 39
35 29 39 117 -39z m2890 0 l41 -37 -58 -55 c-32 -31 -63 -56 -69 -56 -5 0 -30
18 -55 40 -26 21 -54 43 -63 49 -15 8 -13 13 17 37 19 16 51 43 70 61 39 35
29 39 117 -39z m2890 0 l41 -37 -58 -55 c-32 -31 -63 -56 -69 -56 -5 0 -30 18
-55 40 -26 21 -54 43 -63 49 -15 8 -13 13 17 37 19 16 51 43 70 61 39 35 29
39 117 -39z m2890 0 l41 -37 -58 -55 c-32 -31 -63 -56 -69 -56 -5 0 -30 18
-55 40 -26 21 -54 43 -63 49 -15 8 -13 13 17 37 19 16 51 43 70 61 39 35 29
39 117 -39z m2890 0 l41 -37 -58 -55 c-32 -31 -63 -56 -69 -56 -5 0 -30 18
-55 40 -26 21 -54 43 -63 49 -15 8 -13 13 17 37 19 16 51 43 70 61 39 35 29
39 117 -39z m-16762 -10 c14 -6 25 -14 25 -18 0 -17 -111 -60 -156 -60 -53 0
-174 20 -174 29 1 9 78 43 130 58 49 14 134 10 175 -9z m2890 0 c14 -6 25 -14
25 -18 0 -17 -111 -60 -156 -60 -53 0 -174 20 -174 29 1 9 78 43 130 58 49 14
134 10 175 -9z m2890 0 c14 -6 25 -14 25 -18 0 -17 -111 -60 -156 -60 -53 0
-174 20 -174 29 1 9 78 43 130 58 49 14 134 10 175 -9z m2890 0 c14 -6 25 -14
25 -18 0 -17 -111 -60 -156 -60 -53 0 -174 20 -174 29 1 9 78 43 130 58 49 14
134 10 175 -9z m2890 0 c14 -6 25 -14 25 -18 0 -17 -111 -60 -156 -60 -53 0
-174 20 -174 29 1 9 78 43 130 58 49 14 134 10 175 -9z m2890 0 c14 -6 25 -14
25 -18 0 -17 -111 -60 -156 -60 -53 0 -174 20 -174 29 1 9 78 43 130 58 49 14
134 10 175 -9z m2890 0 c14 -6 25 -14 25 -18 0 -17 -111 -60 -156 -60 -53 0
-174 20 -174 29 1 9 78 43 130 58 49 14 134 10 175 -9z m-18494 -2 c24 -7 58
-19 74 -26 l30 -12 -59 -24 c-75 -31 -150 -32 -217 -3 -27 12 -49 25 -49 29 0
6 50 30 90 44 29 9 87 6 131 -8z m2890 0 c24 -7 58 -19 74 -26 l30 -12 -59
-24 c-75 -31 -150 -32 -217 -3 -27 12 -49 25 -49 29 0 6 50 30 90 44 29 9 87
6 131 -8z m2890 0 c24 -7 58 -19 74 -26 l30 -12 -59 -24 c-75 -31 -150 -32
-217 -3 -27 12 -49 25 -49 29 0 6 50 30 90 44 29 9 87 6 131 -8z m2890 0 c24
-7 58 -19 74 -26 l30 -12 -59 -24 c-75 -31 -150 -32 -217 -3 -27 12 -49 25
-49 29 0 6 50 30 90 44 29 9 87 6 131 -8z m2890 0 c24 -7 58 -19 74 -26 l30
-12 -59 -24 c-75 -31 -150 -32 -217 -3 -27 12 -49 25 -49 29 0 6 50 30 90 44
29 9 87 6 131 -8z m2890 0 c24 -7 58 -19 74 -26 l30 -12 -59 -24 c-75 -31
-150 -32 -217 -3 -27 12 -49 25 -49 29 0 6 50 30 90 44 29 9 87 6 131 -8z
m2890 0 c24 -7 58 -19 74 -26 l30 -12 -59 -24 c-75 -31 -150 -32 -217 -3 -27
12 -49 25 -49 29 0 6 50 30 90 44 29 9 87 6 131 -8z m-16811 -503 c11 -30 20
-66 20 -80 0 -34 -39 -115 -53 -110 -6 2 -22 23 -35 48 -19 36 -23 54 -19 99
3 30 13 73 22 95 16 37 18 38 31 20 8 -10 23 -43 34 -72z m2890 0 c11 -30 20
-66 20 -80 0 -34 -39 -115 -53 -110 -6 2 -22 23 -35 48 -19 36 -23 54 -19 99
3 30 13 73 22 95 16 37 18 38 31 20 8 -10 23 -43 34 -72z m2890 0 c11 -30 20
-66 20 -80 0 -34 -39 -115 -53 -110 -6 2 -22 23 -35 48 -19 36 -23 54 -19 99
3 30 13 73 22 95 16 37 18 38 31 20 8 -10 23 -43 34 -72z m2890 0 c11 -30 20
-66 20 -80 0 -34 -39 -115 -53 -110 -6 2 -22 23 -35 48 -19 36 -23 54 -19 99
3 30 13 73 22 95 16 37 18 38 31 20 8 -10 23 -43 34 -72z m2890 0 c11 -30 20
-66 20 -80 0 -34 -39 -115 -53 -110 -6 2 -22 23 -35 48 -19 36 -23 54 -19 99
3 30 13 73 22 95 16 37 18 38 31 20 8 -10 23 -43 34 -72z m2890 0 c11 -30 20
-66 20 -80 0 -34 -39 -115 -53 -110 -6 2 -22 23 -35 48 -19 36 -23 54 -19 99
3 30 13 73 22 95 16 37 18 38 31 20 8 -10 23 -43 34 -72z m2890 0 c11 -30 20
-66 20 -80 0 -34 -39 -115 -53 -110 -6 2 -22 23 -35 48 -19 36 -23 54 -19 99
3 30 13 73 22 95 16 37 18 38 31 20 8 -10 23 -43 34 -72z"/>
</g>
</svg>
